<svg xmlns="http://www.w3.org/2000/svg" width="1200" height="638" viewBox="0 0 1200 638">
<rect x="0.00" y="0.00" width="1200.00" height="638.00" fill="#ffffff" rx="0.00" />
<text x="24.00" y="34.00" fill="#111827" font-size="24" font-family="Helvetica, Arial, sans-serif" text-anchor="start" font-weight="700">Physics boost histogram</text>
<text x="24.00" y="58.00" fill="#475569" font-size="13" font-family="Helvetica, Arial, sans-serif" text-anchor="start" font-weight="400">Histogram of applied physics boosts using bucket width 0.020.</text>
<line x1="290.00" y1="78.00" x2="290.00" y2="600.00" stroke="#e2e8f0" stroke-width="1.0" stroke-dasharray="4 4" />
<text x="290.00" y="618.00" fill="#64748b" font-size="12" font-family="Helvetica, Arial, sans-serif" text-anchor="middle" font-weight="400">0</text>
<line x1="480.00" y1="78.00" x2="480.00" y2="600.00" stroke="#e2e8f0" stroke-width="1.0" stroke-dasharray="4 4" />
<text x="480.00" y="618.00" fill="#64748b" font-size="12" font-family="Helvetica, Arial, sans-serif" text-anchor="middle" font-weight="400">29.4K</text>
<line x1="670.00" y1="78.00" x2="670.00" y2="600.00" stroke="#e2e8f0" stroke-width="1.0" stroke-dasharray="4 4" />
<text x="670.00" y="618.00" fill="#64748b" font-size="12" font-family="Helvetica, Arial, sans-serif" text-anchor="middle" font-weight="400">58.7K</text>
<line x1="860.00" y1="78.00" x2="860.00" y2="600.00" stroke="#e2e8f0" stroke-width="1.0" stroke-dasharray="4 4" />
<text x="860.00" y="618.00" fill="#64748b" font-size="12" font-family="Helvetica, Arial, sans-serif" text-anchor="middle" font-weight="400">88.1K</text>
<line x1="1050.00" y1="78.00" x2="1050.00" y2="600.00" stroke="#e2e8f0" stroke-width="1.0" stroke-dasharray="4 4" />
<text x="1050.00" y="618.00" fill="#64748b" font-size="12" font-family="Helvetica, Arial, sans-serif" text-anchor="middle" font-weight="400">117.5K</text>
<line x1="290.00" y1="114.00" x2="1060.00" y2="114.00" stroke="#f1f5f9" stroke-width="1.0" />
<text x="278.00" y="104.00" fill="#111827" font-size="13" font-family="Helvetica, Arial, sans-serif" text-anchor="end" font-weight="400">0.00 to 0.02</text>
<rect x="290.00" y="90.00" width="355.12" height="16.00" fill="#0f766e" rx="4.00" />
<text x="653.12" y="103.00" fill="#334155" font-size="12" font-family="Helvetica, Arial, sans-serif" text-anchor="start" font-weight="400">54,901 keywords</text>
<line x1="290.00" y1="144.00" x2="1060.00" y2="144.00" stroke="#f1f5f9" stroke-width="1.0" />
<text x="278.00" y="134.00" fill="#111827" font-size="13" font-family="Helvetica, Arial, sans-serif" text-anchor="end" font-weight="400">0.04 to 0.06</text>
<rect x="290.00" y="120.00" width="658.98" height="16.00" fill="#0f766e" rx="4.00" />
<text x="956.98" y="133.00" fill="#334155" font-size="12" font-family="Helvetica, Arial, sans-serif" text-anchor="start" font-weight="400">101,878 keywords</text>
<line x1="290.00" y1="174.00" x2="1060.00" y2="174.00" stroke="#f1f5f9" stroke-width="1.0" />
<text x="278.00" y="164.00" fill="#111827" font-size="13" font-family="Helvetica, Arial, sans-serif" text-anchor="end" font-weight="400">0.06 to 0.08</text>
<rect x="290.00" y="150.00" width="354.53" height="16.00" fill="#0f766e" rx="4.00" />
<text x="652.53" y="163.00" fill="#334155" font-size="12" font-family="Helvetica, Arial, sans-serif" text-anchor="start" font-weight="400">54,810 keywords</text>
<line x1="290.00" y1="204.00" x2="1060.00" y2="204.00" stroke="#f1f5f9" stroke-width="1.0" />
<text x="278.00" y="194.00" fill="#111827" font-size="13" font-family="Helvetica, Arial, sans-serif" text-anchor="end" font-weight="400">0.08 to 0.10</text>
<rect x="290.00" y="180.00" width="760.00" height="16.00" fill="#0f766e" rx="4.00" />
<text x="1058.00" y="193.00" fill="#334155" font-size="12" font-family="Helvetica, Arial, sans-serif" text-anchor="start" font-weight="400">117,495 keywords</text>
<line x1="290.00" y1="234.00" x2="1060.00" y2="234.00" stroke="#f1f5f9" stroke-width="1.0" />
<text x="278.00" y="224.00" fill="#111827" font-size="13" font-family="Helvetica, Arial, sans-serif" text-anchor="end" font-weight="400">0.10 to 0.12</text>
<rect x="290.00" y="210.00" width="319.58" height="16.00" fill="#0f766e" rx="4.00" />
<text x="617.58" y="223.00" fill="#334155" font-size="12" font-family="Helvetica, Arial, sans-serif" text-anchor="start" font-weight="400">49,406 keywords</text>
<line x1="290.00" y1="264.00" x2="1060.00" y2="264.00" stroke="#f1f5f9" stroke-width="1.0" />
<text x="278.00" y="254.00" fill="#111827" font-size="13" font-family="Helvetica, Arial, sans-serif" text-anchor="end" font-weight="400">0.12 to 0.14</text>
<rect x="290.00" y="240.00" width="445.51" height="16.00" fill="#0f766e" rx="4.00" />
<text x="743.51" y="253.00" fill="#334155" font-size="12" font-family="Helvetica, Arial, sans-serif" text-anchor="start" font-weight="400">68,875 keywords</text>
<line x1="290.00" y1="294.00" x2="1060.00" y2="294.00" stroke="#f1f5f9" stroke-width="1.0" />
<text x="278.00" y="284.00" fill="#111827" font-size="13" font-family="Helvetica, Arial, sans-serif" text-anchor="end" font-weight="400">0.14 to 0.16</text>
<rect x="290.00" y="270.00" width="250.51" height="16.00" fill="#0f766e" rx="4.00" />
<text x="548.51" y="283.00" fill="#334155" font-size="12" font-family="Helvetica, Arial, sans-serif" text-anchor="start" font-weight="400">38,729 keywords</text>
<line x1="290.00" y1="324.00" x2="1060.00" y2="324.00" stroke="#f1f5f9" stroke-width="1.0" />
<text x="278.00" y="314.00" fill="#111827" font-size="13" font-family="Helvetica, Arial, sans-serif" text-anchor="end" font-weight="400">0.16 to 0.18</text>
<rect x="290.00" y="300.00" width="28.69" height="16.00" fill="#0f766e" rx="4.00" />
<text x="326.69" y="313.00" fill="#334155" font-size="12" font-family="Helvetica, Arial, sans-serif" text-anchor="start" font-weight="400">4,436 keywords</text>
<line x1="290.00" y1="354.00" x2="1060.00" y2="354.00" stroke="#f1f5f9" stroke-width="1.0" />
<text x="278.00" y="344.00" fill="#111827" font-size="13" font-family="Helvetica, Arial, sans-serif" text-anchor="end" font-weight="400">0.18 to 0.20</text>
<rect x="290.00" y="330.00" width="140.58" height="16.00" fill="#0f766e" rx="4.00" />
<text x="438.58" y="343.00" fill="#334155" font-size="12" font-family="Helvetica, Arial, sans-serif" text-anchor="start" font-weight="400">21,733 keywords</text>
<line x1="290.00" y1="384.00" x2="1060.00" y2="384.00" stroke="#f1f5f9" stroke-width="1.0" />
<text x="278.00" y="374.00" fill="#111827" font-size="13" font-family="Helvetica, Arial, sans-serif" text-anchor="end" font-weight="400">0.20 to 0.22</text>
<rect x="290.00" y="360.00" width="21.04" height="16.00" fill="#0f766e" rx="4.00" />
<text x="319.04" y="373.00" fill="#334155" font-size="12" font-family="Helvetica, Arial, sans-serif" text-anchor="start" font-weight="400">3,253 keywords</text>
<line x1="290.00" y1="414.00" x2="1060.00" y2="414.00" stroke="#f1f5f9" stroke-width="1.0" />
<text x="278.00" y="404.00" fill="#111827" font-size="13" font-family="Helvetica, Arial, sans-serif" text-anchor="end" font-weight="400">0.22 to 0.24</text>
<rect x="290.00" y="390.00" width="6.99" height="16.00" fill="#0f766e" rx="4.00" />
<text x="304.99" y="403.00" fill="#334155" font-size="12" font-family="Helvetica, Arial, sans-serif" text-anchor="start" font-weight="400">1,080 keywords</text>
<line x1="290.00" y1="444.00" x2="1060.00" y2="444.00" stroke="#f1f5f9" stroke-width="1.0" />
<text x="278.00" y="434.00" fill="#111827" font-size="13" font-family="Helvetica, Arial, sans-serif" text-anchor="end" font-weight="400">0.24 to 0.26</text>
<rect x="290.00" y="420.00" width="14.10" height="16.00" fill="#0f766e" rx="4.00" />
<text x="312.10" y="433.00" fill="#334155" font-size="12" font-family="Helvetica, Arial, sans-serif" text-anchor="start" font-weight="400">2,180 keywords</text>
<line x1="290.00" y1="474.00" x2="1060.00" y2="474.00" stroke="#f1f5f9" stroke-width="1.0" />
<text x="278.00" y="464.00" fill="#111827" font-size="13" font-family="Helvetica, Arial, sans-serif" text-anchor="end" font-weight="400">0.26 to 0.28</text>
<rect x="290.00" y="450.00" width="14.07" height="16.00" fill="#0f766e" rx="4.00" />
<text x="312.07" y="463.00" fill="#334155" font-size="12" font-family="Helvetica, Arial, sans-serif" text-anchor="start" font-weight="400">2,175 keywords</text>
<line x1="290.00" y1="504.00" x2="1060.00" y2="504.00" stroke="#f1f5f9" stroke-width="1.0" />
<text x="278.00" y="494.00" fill="#111827" font-size="13" font-family="Helvetica, Arial, sans-serif" text-anchor="end" font-weight="400">0.28 to 0.30</text>
<rect x="290.00" y="480.00" width="0.55" height="16.00" fill="#0f766e" rx="4.00" />
<text x="298.55" y="493.00" fill="#334155" font-size="12" font-family="Helvetica, Arial, sans-serif" text-anchor="start" font-weight="400">85 keywords</text>
<line x1="290.00" y1="534.00" x2="1060.00" y2="534.00" stroke="#f1f5f9" stroke-width="1.0" />
<text x="278.00" y="524.00" fill="#111827" font-size="13" font-family="Helvetica, Arial, sans-serif" text-anchor="end" font-weight="400">0.30 to 0.32</text>
<rect x="290.00" y="510.00" width="6.55" height="16.00" fill="#0f766e" rx="4.00" />
<text x="304.55" y="523.00" fill="#334155" font-size="12" font-family="Helvetica, Arial, sans-serif" text-anchor="start" font-weight="400">1,013 keywords</text>
<line x1="290.00" y1="564.00" x2="1060.00" y2="564.00" stroke="#f1f5f9" stroke-width="1.0" />
<text x="278.00" y="554.00" fill="#111827" font-size="13" font-family="Helvetica, Arial, sans-serif" text-anchor="end" font-weight="400">0.32 to 0.34</text>
<rect x="290.00" y="540.00" width="0.50" height="16.00" fill="#0f766e" rx="4.00" />
<text x="298.50" y="553.00" fill="#334155" font-size="12" font-family="Helvetica, Arial, sans-serif" text-anchor="start" font-weight="400">77 keywords</text>
<line x1="290.00" y1="594.00" x2="1060.00" y2="594.00" stroke="#f1f5f9" stroke-width="1.0" />
<text x="278.00" y="584.00" fill="#111827" font-size="13" font-family="Helvetica, Arial, sans-serif" text-anchor="end" font-weight="400">0.36 to 0.38</text>
<rect x="290.00" y="570.00" width="0.74" height="16.00" fill="#0f766e" rx="4.00" />
<text x="298.74" y="583.00" fill="#334155" font-size="12" font-family="Helvetica, Arial, sans-serif" text-anchor="start" font-weight="400">114 keywords</text>
</svg>
