<svg xmlns="http://www.w3.org/2000/svg" width="1200" height="638" viewBox="0 0 1200 638">
<rect x="0.00" y="0.00" width="1200.00" height="638.00" fill="#ffffff" rx="0.00" />
<text x="24.00" y="34.00" fill="#111827" font-size="24" font-family="Helvetica, Arial, sans-serif" text-anchor="start" font-weight="700">Keyword score histogram</text>
<text x="24.00" y="58.00" fill="#475569" font-size="13" font-family="Helvetica, Arial, sans-serif" text-anchor="start" font-weight="400">Histogram of final keyword scores using bucket width 0.050.</text>
<line x1="290.00" y1="78.00" x2="290.00" y2="600.00" stroke="#e2e8f0" stroke-width="1.0" stroke-dasharray="4 4" />
<text x="290.00" y="618.00" fill="#64748b" font-size="12" font-family="Helvetica, Arial, sans-serif" text-anchor="middle" font-weight="400">0</text>
<line x1="480.00" y1="78.00" x2="480.00" y2="600.00" stroke="#e2e8f0" stroke-width="1.0" stroke-dasharray="4 4" />
<text x="480.00" y="618.00" fill="#64748b" font-size="12" font-family="Helvetica, Arial, sans-serif" text-anchor="middle" font-weight="400">44.3K</text>
<line x1="670.00" y1="78.00" x2="670.00" y2="600.00" stroke="#e2e8f0" stroke-width="1.0" stroke-dasharray="4 4" />
<text x="670.00" y="618.00" fill="#64748b" font-size="12" font-family="Helvetica, Arial, sans-serif" text-anchor="middle" font-weight="400">88.5K</text>
<line x1="860.00" y1="78.00" x2="860.00" y2="600.00" stroke="#e2e8f0" stroke-width="1.0" stroke-dasharray="4 4" />
<text x="860.00" y="618.00" fill="#64748b" font-size="12" font-family="Helvetica, Arial, sans-serif" text-anchor="middle" font-weight="400">132.8K</text>
<line x1="1050.00" y1="78.00" x2="1050.00" y2="600.00" stroke="#e2e8f0" stroke-width="1.0" stroke-dasharray="4 4" />
<text x="1050.00" y="618.00" fill="#64748b" font-size="12" font-family="Helvetica, Arial, sans-serif" text-anchor="middle" font-weight="400">177.0K</text>
<line x1="290.00" y1="114.00" x2="1060.00" y2="114.00" stroke="#f1f5f9" stroke-width="1.0" />
<text x="278.00" y="104.00" fill="#111827" font-size="13" font-family="Helvetica, Arial, sans-serif" text-anchor="end" font-weight="400">0.30 to 0.35</text>
<rect x="290.00" y="90.00" width="0.01" height="16.00" fill="#2563eb" rx="4.00" />
<text x="298.01" y="103.00" fill="#334155" font-size="12" font-family="Helvetica, Arial, sans-serif" text-anchor="start" font-weight="400">3 keywords</text>
<line x1="290.00" y1="144.00" x2="1060.00" y2="144.00" stroke="#f1f5f9" stroke-width="1.0" />
<text x="278.00" y="134.00" fill="#111827" font-size="13" font-family="Helvetica, Arial, sans-serif" text-anchor="end" font-weight="400">0.35 to 0.40</text>
<rect x="290.00" y="120.00" width="0.13" height="16.00" fill="#2563eb" rx="4.00" />
<text x="298.13" y="133.00" fill="#334155" font-size="12" font-family="Helvetica, Arial, sans-serif" text-anchor="start" font-weight="400">30 keywords</text>
<line x1="290.00" y1="174.00" x2="1060.00" y2="174.00" stroke="#f1f5f9" stroke-width="1.0" />
<text x="278.00" y="164.00" fill="#111827" font-size="13" font-family="Helvetica, Arial, sans-serif" text-anchor="end" font-weight="400">0.40 to 0.45</text>
<rect x="290.00" y="150.00" width="0.27" height="16.00" fill="#2563eb" rx="4.00" />
<text x="298.27" y="163.00" fill="#334155" font-size="12" font-family="Helvetica, Arial, sans-serif" text-anchor="start" font-weight="400">64 keywords</text>
<line x1="290.00" y1="204.00" x2="1060.00" y2="204.00" stroke="#f1f5f9" stroke-width="1.0" />
<text x="278.00" y="194.00" fill="#111827" font-size="13" font-family="Helvetica, Arial, sans-serif" text-anchor="end" font-weight="400">0.45 to 0.50</text>
<rect x="290.00" y="180.00" width="1.15" height="16.00" fill="#2563eb" rx="4.00" />
<text x="299.15" y="193.00" fill="#334155" font-size="12" font-family="Helvetica, Arial, sans-serif" text-anchor="start" font-weight="400">268 keywords</text>
<line x1="290.00" y1="234.00" x2="1060.00" y2="234.00" stroke="#f1f5f9" stroke-width="1.0" />
<text x="278.00" y="224.00" fill="#111827" font-size="13" font-family="Helvetica, Arial, sans-serif" text-anchor="end" font-weight="400">0.50 to 0.55</text>
<rect x="290.00" y="210.00" width="3.24" height="16.00" fill="#2563eb" rx="4.00" />
<text x="301.24" y="223.00" fill="#334155" font-size="12" font-family="Helvetica, Arial, sans-serif" text-anchor="start" font-weight="400">755 keywords</text>
<line x1="290.00" y1="264.00" x2="1060.00" y2="264.00" stroke="#f1f5f9" stroke-width="1.0" />
<text x="278.00" y="254.00" fill="#111827" font-size="13" font-family="Helvetica, Arial, sans-serif" text-anchor="end" font-weight="400">0.55 to 0.60</text>
<rect x="290.00" y="240.00" width="12.67" height="16.00" fill="#2563eb" rx="4.00" />
<text x="310.67" y="253.00" fill="#334155" font-size="12" font-family="Helvetica, Arial, sans-serif" text-anchor="start" font-weight="400">2,951 keywords</text>
<line x1="290.00" y1="294.00" x2="1060.00" y2="294.00" stroke="#f1f5f9" stroke-width="1.0" />
<text x="278.00" y="284.00" fill="#111827" font-size="13" font-family="Helvetica, Arial, sans-serif" text-anchor="end" font-weight="400">0.60 to 0.65</text>
<rect x="290.00" y="270.00" width="73.64" height="16.00" fill="#2563eb" rx="4.00" />
<text x="371.64" y="283.00" fill="#334155" font-size="12" font-family="Helvetica, Arial, sans-serif" text-anchor="start" font-weight="400">17,155 keywords</text>
<line x1="290.00" y1="324.00" x2="1060.00" y2="324.00" stroke="#f1f5f9" stroke-width="1.0" />
<text x="278.00" y="314.00" fill="#111827" font-size="13" font-family="Helvetica, Arial, sans-serif" text-anchor="end" font-weight="400">0.65 to 0.70</text>
<rect x="290.00" y="300.00" width="352.89" height="16.00" fill="#2563eb" rx="4.00" />
<text x="650.89" y="313.00" fill="#334155" font-size="12" font-family="Helvetica, Arial, sans-serif" text-anchor="start" font-weight="400">82,207 keywords</text>
<line x1="290.00" y1="354.00" x2="1060.00" y2="354.00" stroke="#f1f5f9" stroke-width="1.0" />
<text x="278.00" y="344.00" fill="#111827" font-size="13" font-family="Helvetica, Arial, sans-serif" text-anchor="end" font-weight="400">0.70 to 0.75</text>
<rect x="290.00" y="330.00" width="760.00" height="16.00" fill="#2563eb" rx="4.00" />
<text x="1058.00" y="343.00" fill="#334155" font-size="12" font-family="Helvetica, Arial, sans-serif" text-anchor="start" font-weight="400">177,046 keywords</text>
<line x1="290.00" y1="384.00" x2="1060.00" y2="384.00" stroke="#f1f5f9" stroke-width="1.0" />
<text x="278.00" y="374.00" fill="#111827" font-size="13" font-family="Helvetica, Arial, sans-serif" text-anchor="end" font-weight="400">0.75 to 0.80</text>
<rect x="290.00" y="360.00" width="598.97" height="16.00" fill="#2563eb" rx="4.00" />
<text x="896.97" y="373.00" fill="#334155" font-size="12" font-family="Helvetica, Arial, sans-serif" text-anchor="start" font-weight="400">139,534 keywords</text>
<line x1="290.00" y1="414.00" x2="1060.00" y2="414.00" stroke="#f1f5f9" stroke-width="1.0" />
<text x="278.00" y="404.00" fill="#111827" font-size="13" font-family="Helvetica, Arial, sans-serif" text-anchor="end" font-weight="400">0.80 to 0.85</text>
<rect x="290.00" y="390.00" width="298.60" height="16.00" fill="#2563eb" rx="4.00" />
<text x="596.60" y="403.00" fill="#334155" font-size="12" font-family="Helvetica, Arial, sans-serif" text-anchor="start" font-weight="400">69,560 keywords</text>
<line x1="290.00" y1="444.00" x2="1060.00" y2="444.00" stroke="#f1f5f9" stroke-width="1.0" />
<text x="278.00" y="434.00" fill="#111827" font-size="13" font-family="Helvetica, Arial, sans-serif" text-anchor="end" font-weight="400">0.85 to 0.90</text>
<rect x="290.00" y="420.00" width="102.37" height="16.00" fill="#2563eb" rx="4.00" />
<text x="400.37" y="433.00" fill="#334155" font-size="12" font-family="Helvetica, Arial, sans-serif" text-anchor="start" font-weight="400">23,847 keywords</text>
<line x1="290.00" y1="474.00" x2="1060.00" y2="474.00" stroke="#f1f5f9" stroke-width="1.0" />
<text x="278.00" y="464.00" fill="#111827" font-size="13" font-family="Helvetica, Arial, sans-serif" text-anchor="end" font-weight="400">0.90 to 0.95</text>
<rect x="290.00" y="450.00" width="28.10" height="16.00" fill="#2563eb" rx="4.00" />
<text x="326.10" y="463.00" fill="#334155" font-size="12" font-family="Helvetica, Arial, sans-serif" text-anchor="start" font-weight="400">6,547 keywords</text>
<line x1="290.00" y1="504.00" x2="1060.00" y2="504.00" stroke="#f1f5f9" stroke-width="1.0" />
<text x="278.00" y="494.00" fill="#111827" font-size="13" font-family="Helvetica, Arial, sans-serif" text-anchor="end" font-weight="400">0.95 to 1.00</text>
<rect x="290.00" y="480.00" width="7.83" height="16.00" fill="#2563eb" rx="4.00" />
<text x="305.83" y="493.00" fill="#334155" font-size="12" font-family="Helvetica, Arial, sans-serif" text-anchor="start" font-weight="400">1,823 keywords</text>
<line x1="290.00" y1="534.00" x2="1060.00" y2="534.00" stroke="#f1f5f9" stroke-width="1.0" />
<text x="278.00" y="524.00" fill="#111827" font-size="13" font-family="Helvetica, Arial, sans-serif" text-anchor="end" font-weight="400">1.00 to 1.05</text>
<rect x="290.00" y="510.00" width="1.61" height="16.00" fill="#2563eb" rx="4.00" />
<text x="299.61" y="523.00" fill="#334155" font-size="12" font-family="Helvetica, Arial, sans-serif" text-anchor="start" font-weight="400">374 keywords</text>
<line x1="290.00" y1="564.00" x2="1060.00" y2="564.00" stroke="#f1f5f9" stroke-width="1.0" />
<text x="278.00" y="554.00" fill="#111827" font-size="13" font-family="Helvetica, Arial, sans-serif" text-anchor="end" font-weight="400">1.05 to 1.10</text>
<rect x="290.00" y="540.00" width="0.30" height="16.00" fill="#2563eb" rx="4.00" />
<text x="298.30" y="553.00" fill="#334155" font-size="12" font-family="Helvetica, Arial, sans-serif" text-anchor="start" font-weight="400">70 keywords</text>
<line x1="290.00" y1="594.00" x2="1060.00" y2="594.00" stroke="#f1f5f9" stroke-width="1.0" />
<text x="278.00" y="584.00" fill="#111827" font-size="13" font-family="Helvetica, Arial, sans-serif" text-anchor="end" font-weight="400">1.10 to 1.15</text>
<rect x="290.00" y="570.00" width="0.03" height="16.00" fill="#2563eb" rx="4.00" />
<text x="298.03" y="583.00" fill="#334155" font-size="12" font-family="Helvetica, Arial, sans-serif" text-anchor="start" font-weight="400">6 keywords</text>
</svg>
