<svg xmlns="http://www.w3.org/2000/svg" width="1200" height="728" viewBox="0 0 1200 728">
<rect x="0.00" y="0.00" width="1200.00" height="728.00" fill="#ffffff" rx="0.00" />
<text x="24.00" y="34.00" fill="#111827" font-size="24" font-family="Helvetica, Arial, sans-serif" text-anchor="start" font-weight="700">Top keywords by paper frequency</text>
<text x="24.00" y="58.00" fill="#475569" font-size="13" font-family="Helvetica, Arial, sans-serif" text-anchor="start" font-weight="400">Top 20 keywords ranked by number of distinct papers.</text>
<line x1="290.00" y1="78.00" x2="290.00" y2="690.00" stroke="#e2e8f0" stroke-width="1.0" stroke-dasharray="4 4" />
<text x="290.00" y="708.00" fill="#64748b" font-size="12" font-family="Helvetica, Arial, sans-serif" text-anchor="middle" font-weight="400">0</text>
<line x1="480.00" y1="78.00" x2="480.00" y2="690.00" stroke="#e2e8f0" stroke-width="1.0" stroke-dasharray="4 4" />
<text x="480.00" y="708.00" fill="#64748b" font-size="12" font-family="Helvetica, Arial, sans-serif" text-anchor="middle" font-weight="400">294.75</text>
<line x1="670.00" y1="78.00" x2="670.00" y2="690.00" stroke="#e2e8f0" stroke-width="1.0" stroke-dasharray="4 4" />
<text x="670.00" y="708.00" fill="#64748b" font-size="12" font-family="Helvetica, Arial, sans-serif" text-anchor="middle" font-weight="400">589.50</text>
<line x1="860.00" y1="78.00" x2="860.00" y2="690.00" stroke="#e2e8f0" stroke-width="1.0" stroke-dasharray="4 4" />
<text x="860.00" y="708.00" fill="#64748b" font-size="12" font-family="Helvetica, Arial, sans-serif" text-anchor="middle" font-weight="400">884.25</text>
<line x1="1050.00" y1="78.00" x2="1050.00" y2="690.00" stroke="#e2e8f0" stroke-width="1.0" stroke-dasharray="4 4" />
<text x="1050.00" y="708.00" fill="#64748b" font-size="12" font-family="Helvetica, Arial, sans-serif" text-anchor="middle" font-weight="400">1.2K</text>
<line x1="290.00" y1="114.00" x2="1060.00" y2="114.00" stroke="#f1f5f9" stroke-width="1.0" />
<text x="278.00" y="104.00" fill="#111827" font-size="13" font-family="Helvetica, Arial, sans-serif" text-anchor="end" font-weight="400">quantum</text>
<rect x="290.00" y="90.00" width="760.00" height="16.00" fill="#2563eb" rx="4.00" />
<text x="1058.00" y="103.00" fill="#334155" font-size="12" font-family="Helvetica, Arial, sans-serif" text-anchor="start" font-weight="400">1,179 papers | 3.399%</text>
<line x1="290.00" y1="144.00" x2="1060.00" y2="144.00" stroke="#f1f5f9" stroke-width="1.0" />
<text x="278.00" y="134.00" fill="#111827" font-size="13" font-family="Helvetica, Arial, sans-serif" text-anchor="end" font-weight="400">dark matter</text>
<rect x="290.00" y="120.00" width="536.32" height="16.00" fill="#2563eb" rx="4.00" />
<text x="834.32" y="133.00" fill="#334155" font-size="12" font-family="Helvetica, Arial, sans-serif" text-anchor="start" font-weight="400">832 papers | 2.398%</text>
<line x1="290.00" y1="174.00" x2="1060.00" y2="174.00" stroke="#f1f5f9" stroke-width="1.0" />
<text x="278.00" y="164.00" fill="#111827" font-size="13" font-family="Helvetica, Arial, sans-serif" text-anchor="end" font-weight="400">phase transition</text>
<rect x="290.00" y="150.00" width="431.89" height="16.00" fill="#2563eb" rx="4.00" />
<text x="729.89" y="163.00" fill="#334155" font-size="12" font-family="Helvetica, Arial, sans-serif" text-anchor="start" font-weight="400">670 papers | 1.931%</text>
<line x1="290.00" y1="204.00" x2="1060.00" y2="204.00" stroke="#f1f5f9" stroke-width="1.0" />
<text x="278.00" y="194.00" fill="#111827" font-size="13" font-family="Helvetica, Arial, sans-serif" text-anchor="end" font-weight="400">magnetic field</text>
<rect x="290.00" y="180.00" width="360.34" height="16.00" fill="#2563eb" rx="4.00" />
<text x="658.34" y="193.00" fill="#334155" font-size="12" font-family="Helvetica, Arial, sans-serif" text-anchor="start" font-weight="400">559 papers | 1.611%</text>
<line x1="290.00" y1="234.00" x2="1060.00" y2="234.00" stroke="#f1f5f9" stroke-width="1.0" />
<text x="278.00" y="224.00" fill="#111827" font-size="13" font-family="Helvetica, Arial, sans-serif" text-anchor="end" font-weight="400">ground state</text>
<rect x="290.00" y="210.00" width="337.78" height="16.00" fill="#2563eb" rx="4.00" />
<text x="635.78" y="223.00" fill="#334155" font-size="12" font-family="Helvetica, Arial, sans-serif" text-anchor="start" font-weight="400">524 papers | 1.511%</text>
<line x1="290.00" y1="264.00" x2="1060.00" y2="264.00" stroke="#f1f5f9" stroke-width="1.0" />
<text x="278.00" y="254.00" fill="#111827" font-size="13" font-family="Helvetica, Arial, sans-serif" text-anchor="end" font-weight="400">fermion</text>
<rect x="290.00" y="240.00" width="264.29" height="16.00" fill="#2563eb" rx="4.00" />
<text x="562.29" y="253.00" fill="#334155" font-size="12" font-family="Helvetica, Arial, sans-serif" text-anchor="start" font-weight="400">410 papers | 1.182%</text>
<line x1="290.00" y1="294.00" x2="1060.00" y2="294.00" stroke="#f1f5f9" stroke-width="1.0" />
<text x="278.00" y="284.00" fill="#111827" font-size="13" font-family="Helvetica, Arial, sans-serif" text-anchor="end" font-weight="400">gravity</text>
<rect x="290.00" y="270.00" width="235.28" height="16.00" fill="#2563eb" rx="4.00" />
<text x="533.28" y="283.00" fill="#334155" font-size="12" font-family="Helvetica, Arial, sans-serif" text-anchor="start" font-weight="400">365 papers | 1.052%</text>
<line x1="290.00" y1="324.00" x2="1060.00" y2="324.00" stroke="#f1f5f9" stroke-width="1.0" />
<text x="278.00" y="314.00" fill="#111827" font-size="13" font-family="Helvetica, Arial, sans-serif" text-anchor="end" font-weight="400">dark energy</text>
<rect x="290.00" y="300.00" width="233.99" height="16.00" fill="#2563eb" rx="4.00" />
<text x="531.99" y="313.00" fill="#334155" font-size="12" font-family="Helvetica, Arial, sans-serif" text-anchor="start" font-weight="400">363 papers | 1.046%</text>
<line x1="290.00" y1="354.00" x2="1060.00" y2="354.00" stroke="#f1f5f9" stroke-width="1.0" />
<text x="278.00" y="344.00" fill="#111827" font-size="13" font-family="Helvetica, Arial, sans-serif" text-anchor="end" font-weight="400">neutrino</text>
<rect x="290.00" y="330.00" width="212.72" height="16.00" fill="#2563eb" rx="4.00" />
<text x="510.72" y="343.00" fill="#334155" font-size="12" font-family="Helvetica, Arial, sans-serif" text-anchor="start" font-weight="400">330 papers | 0.951%</text>
<line x1="290.00" y1="384.00" x2="1060.00" y2="384.00" stroke="#f1f5f9" stroke-width="1.0" />
<text x="278.00" y="374.00" fill="#111827" font-size="13" font-family="Helvetica, Arial, sans-serif" text-anchor="end" font-weight="400">gauge theory</text>
<rect x="290.00" y="360.00" width="211.43" height="16.00" fill="#2563eb" rx="4.00" />
<text x="509.43" y="373.00" fill="#334155" font-size="12" font-family="Helvetica, Arial, sans-serif" text-anchor="start" font-weight="400">328 papers | 0.946%</text>
<line x1="290.00" y1="414.00" x2="1060.00" y2="414.00" stroke="#f1f5f9" stroke-width="1.0" />
<text x="278.00" y="404.00" fill="#111827" font-size="13" font-family="Helvetica, Arial, sans-serif" text-anchor="end" font-weight="400">phase transitions</text>
<rect x="290.00" y="390.00" width="208.85" height="16.00" fill="#2563eb" rx="4.00" />
<text x="506.85" y="403.00" fill="#334155" font-size="12" font-family="Helvetica, Arial, sans-serif" text-anchor="start" font-weight="400">324 papers | 0.934%</text>
<line x1="290.00" y1="444.00" x2="1060.00" y2="444.00" stroke="#f1f5f9" stroke-width="1.0" />
<text x="278.00" y="434.00" fill="#111827" font-size="13" font-family="Helvetica, Arial, sans-serif" text-anchor="end" font-weight="400">renormalization group</text>
<rect x="290.00" y="420.00" width="206.92" height="16.00" fill="#2563eb" rx="4.00" />
<text x="504.92" y="433.00" fill="#334155" font-size="12" font-family="Helvetica, Arial, sans-serif" text-anchor="start" font-weight="400">321 papers | 0.925%</text>
<line x1="290.00" y1="474.00" x2="1060.00" y2="474.00" stroke="#f1f5f9" stroke-width="1.0" />
<text x="278.00" y="464.00" fill="#111827" font-size="13" font-family="Helvetica, Arial, sans-serif" text-anchor="end" font-weight="400">hadron</text>
<rect x="290.00" y="450.00" width="192.74" height="16.00" fill="#2563eb" rx="4.00" />
<text x="490.74" y="463.00" fill="#334155" font-size="12" font-family="Helvetica, Arial, sans-serif" text-anchor="start" font-weight="400">299 papers | 0.862%</text>
<line x1="290.00" y1="504.00" x2="1060.00" y2="504.00" stroke="#f1f5f9" stroke-width="1.0" />
<text x="278.00" y="494.00" fill="#111827" font-size="13" font-family="Helvetica, Arial, sans-serif" text-anchor="end" font-weight="400">perturbation theory</text>
<rect x="290.00" y="480.00" width="191.45" height="16.00" fill="#2563eb" rx="4.00" />
<text x="489.45" y="493.00" fill="#334155" font-size="12" font-family="Helvetica, Arial, sans-serif" text-anchor="start" font-weight="400">297 papers | 0.856%</text>
<line x1="290.00" y1="534.00" x2="1060.00" y2="534.00" stroke="#f1f5f9" stroke-width="1.0" />
<text x="278.00" y="524.00" fill="#111827" font-size="13" font-family="Helvetica, Arial, sans-serif" text-anchor="end" font-weight="400">cosmology</text>
<rect x="290.00" y="510.00" width="188.87" height="16.00" fill="#2563eb" rx="4.00" />
<text x="486.87" y="523.00" fill="#334155" font-size="12" font-family="Helvetica, Arial, sans-serif" text-anchor="start" font-weight="400">293 papers | 0.845%</text>
<line x1="290.00" y1="564.00" x2="1060.00" y2="564.00" stroke="#f1f5f9" stroke-width="1.0" />
<text x="278.00" y="554.00" fill="#111827" font-size="13" font-family="Helvetica, Arial, sans-serif" text-anchor="end" font-weight="400">relativity</text>
<rect x="290.00" y="540.00" width="181.14" height="16.00" fill="#2563eb" rx="4.00" />
<text x="479.14" y="553.00" fill="#334155" font-size="12" font-family="Helvetica, Arial, sans-serif" text-anchor="start" font-weight="400">281 papers | 0.810%</text>
<line x1="290.00" y1="594.00" x2="1060.00" y2="594.00" stroke="#f1f5f9" stroke-width="1.0" />
<text x="278.00" y="584.00" fill="#111827" font-size="13" font-family="Helvetica, Arial, sans-serif" text-anchor="end" font-weight="400">star formation</text>
<rect x="290.00" y="570.00" width="177.27" height="16.00" fill="#2563eb" rx="4.00" />
<text x="475.27" y="583.00" fill="#334155" font-size="12" font-family="Helvetica, Arial, sans-serif" text-anchor="start" font-weight="400">275 papers | 0.793%</text>
<line x1="290.00" y1="624.00" x2="1060.00" y2="624.00" stroke="#f1f5f9" stroke-width="1.0" />
<text x="278.00" y="614.00" fill="#111827" font-size="13" font-family="Helvetica, Arial, sans-serif" text-anchor="end" font-weight="400">quantum mechanics</text>
<rect x="290.00" y="600.00" width="168.89" height="16.00" fill="#2563eb" rx="4.00" />
<text x="466.89" y="613.00" fill="#334155" font-size="12" font-family="Helvetica, Arial, sans-serif" text-anchor="start" font-weight="400">262 papers | 0.755%</text>
<line x1="290.00" y1="654.00" x2="1060.00" y2="654.00" stroke="#f1f5f9" stroke-width="1.0" />
<text x="278.00" y="644.00" fill="#111827" font-size="13" font-family="Helvetica, Arial, sans-serif" text-anchor="end" font-weight="400">mean field</text>
<rect x="290.00" y="630.00" width="159.86" height="16.00" fill="#2563eb" rx="4.00" />
<text x="457.86" y="643.00" fill="#334155" font-size="12" font-family="Helvetica, Arial, sans-serif" text-anchor="start" font-weight="400">248 papers | 0.715%</text>
<line x1="290.00" y1="684.00" x2="1060.00" y2="684.00" stroke="#f1f5f9" stroke-width="1.0" />
<text x="278.00" y="674.00" fill="#111827" font-size="13" font-family="Helvetica, Arial, sans-serif" text-anchor="end" font-weight="400">gluon</text>
<rect x="290.00" y="660.00" width="159.22" height="16.00" fill="#2563eb" rx="4.00" />
<text x="457.22" y="673.00" fill="#334155" font-size="12" font-family="Helvetica, Arial, sans-serif" text-anchor="start" font-weight="400">247 papers | 0.712%</text>
</svg>
